<?xml version="1.0" encoding="UTF-8" standalone="no"?>
<!DOCTYPE svg PUBLIC "-//W3C//DTD SVG 1.1//EN" "http://www.w3.org/Graphics/SVG/1.1/DTD/svg11.dtd">
<svg width="100%" height="100%" viewBox="0 0 1280 800" version="1.1" xmlns="http://www.w3.org/2000/svg" xmlns:xlink="http://www.w3.org/1999/xlink" xml:space="preserve" xmlns:serif="http://www.serif.com/" style="fill-rule:evenodd;clip-rule:evenodd;stroke-linecap:round;stroke-linejoin:round;stroke-miterlimit:1.5;">
    <rect x="-142.927" y="-103.93" width="1549.74" height="1003.46" style="fill:rgb(0,255,13);"/>
    <path id="door" d="M77.07,91.91C85.959,91.91 95.45,99.136 103.518,102.16C133.752,113.494 163.592,128.908 192.309,140.29C205.423,145.488 218.975,151.945 232.377,156.389C233.883,156.889 248.436,163.936 249.565,162.91C250.954,161.647 248.774,157.861 246.898,157.947C246.759,157.953 246.898,177.061 246.898,178.124C246.898,202.54 246.898,226.957 246.898,251.374C246.898,310.925 233.45,368.628 233.45,428.176C233.45,444.422 233.45,460.669 233.45,476.915C233.45,488.846 234.021,500.943 233.45,512.858C232.979,522.69 232.431,532.537 231.653,542.316C230,563.093 228.429,585.916 228.429,606.244C228.429,617.408 228.033,628.365 228.033,639.504C228.033,639.718 228.223,640.047 228.033,640.145C219.268,644.638 155.788,625.107 142.049,623.343C131.695,622.013 121.065,622.697 110.648,622.697C103.194,622.697 70.617,625.653 70.617,627.301C70.617,650.01 72.653,598.996 72.658,598.16C72.706,590.073 73.01,579.353 72.658,571.369C71.846,552.903 70.711,534.838 70.757,516.285C70.82,491.259 70.757,466.233 70.757,441.207C70.757,412.063 69.13,275.149 84.122,247.733C87.17,242.159 80.927,224.123 79.804,218.525C75.937,199.247 83.812,171.166 74.955,153.452C72.096,147.733 87.938,97.686 76.226,97.686" style="fill:url(#_Linear1);stroke:black;stroke-width:1px;"/>
    <g id="SILAS" transform="matrix(1,0,0,1,59.6043,9.58204)">
        <path d="M275.3,319.373L275.445,339.861C275.445,339.861 259.277,341.415 251.363,356.763C243.449,372.111 250.035,461.275 250.035,461.275L259.339,497.443L280.011,502.513L273.664,426.603L276.953,389.443L288.664,493.111L293.359,513.091L347.636,513.775L348.562,485.021L340.824,395.955L358.292,448.087L366.875,514.04L381.839,513.806L385.402,433.591L368.445,375.888L338.441,347.037L312.195,341.931L297.671,325.212L275.3,319.373" style="fill:url(#_Linear2);stroke:black;stroke-width:1px;"/>
        <ellipse cx="279.751" cy="269.588" rx="47.197" ry="57.374" style="fill:rgb(235,235,235);"/>
        <path d="M293.933,513.716L293.765,600.154L273.714,606.509L260.257,612.13L253.375,623.638L275.39,630.138L292.769,628.787L308.664,624.947L311.937,606.247L313.933,583.044L315.671,554.861L319.308,541.302L332.042,565.064L331.41,590.087L331.093,609.33L331.093,620.564L347.66,628.994L362.39,628.388L381.832,624.72L397.445,612.482L390.947,617.575L381.734,600.802L368.05,603.654L354.175,601.978L353.101,568.306L354.484,540.634L349.007,528.138L344.281,513.607L293.933,513.716Z" style="fill:white;stroke:black;stroke-width:1px;"/>
        <path d="M263.979,242.92L264.37,242.951L264.736,242.996L265.083,243.055L265.408,243.123L265.782,243.216L266.27,243.365L266.768,243.553L267.212,243.751L267.61,243.954L267.97,244.159L268.298,244.366L268.597,244.572L268.875,244.779L269.135,244.989L269.378,245.198L269.608,245.41L269.829,245.626L270.039,245.846L270.241,246.071L270.436,246.302L270.629,246.546L270.816,246.797L270.998,247.061L271.181,247.345L271.358,247.644L271.531,247.964L271.703,248.314L271.869,248.694L272.028,249.111L272.176,249.569L272.31,250.079L272.407,250.577L272.459,250.947L272.493,251.273L272.515,251.616L272.523,251.977L272.515,252.356L272.489,252.744L272.442,253.15L272.372,253.579L272.272,254.026L272.148,254.471L271.991,254.93L271.802,255.39L271.584,255.842L271.33,256.295L271.047,256.734L270.736,257.155L270.399,257.555L270.041,257.929L269.671,258.272L269.284,258.589L268.893,258.872L268.5,259.124L268.107,259.347L267.722,259.54L267.343,259.706L266.969,259.849L266.612,259.967L266.27,260.065L265.938,260.146L265.619,260.21L265.315,260.261L265.024,260.299L264.745,260.326L264.479,260.344L264.221,260.354L264.075,260.356L264.007,260.357L263.939,260.357L263.872,260.356L263.804,260.355L263.736,260.353L263.668,260.351L263.6,260.348L263.532,260.345L263.464,260.34L263.397,260.336L263.329,260.331L263.261,260.325L263.193,260.319L263.126,260.312L263.058,260.304L262.991,260.296L262.924,260.287L262.856,260.278L262.789,260.268L262.722,260.258L262.655,260.247L262.588,260.236L262.521,260.223L262.454,260.211L262.388,260.198L262.321,260.184L262.255,260.17L262.189,260.155L262.122,260.139L262.056,260.123L261.991,260.107L261.925,260.089L261.859,260.072L261.794,260.053L261.729,260.035L261.663,260.015L261.598,259.995L261.534,259.975L261.469,259.954L261.405,259.932L261.34,259.91L261.276,259.888L261.213,259.864L261.149,259.841L261.086,259.816L261.022,259.792L260.959,259.766L260.896,259.74L260.834,259.714L260.772,259.687L260.709,259.66L260.648,259.632L260.586,259.603L260.524,259.574L260.463,259.544L260.402,259.514L260.342,259.484L260.281,259.453L260.221,259.421L260.161,259.389L260.102,259.356L260.043,259.323L259.984,259.289L259.925,259.255L259.866,259.221L259.808,259.185L259.75,259.15L259.693,259.114L259.636,259.077L259.579,259.04L259.522,259.002L259.466,258.964L259.41,258.926L259.354,258.887L259.299,258.847L259.244,258.807L259.19,258.767L259.135,258.726L259.081,258.685L259.028,258.643L258.975,258.601L258.922,258.558L258.869,258.515L258.817,258.471L258.766,258.427L258.714,258.383L258.663,258.338L258.613,258.293L258.562,258.247L258.513,258.201L258.463,258.154L258.414,258.107L258.366,258.06L258.317,258.012L258.27,257.964L258.222,257.915L258.175,257.866L258.129,257.816L258.082,257.767L258.037,257.716L257.991,257.666L257.947,257.615L257.902,257.563L257.858,257.512L257.815,257.459L257.771,257.407L257.729,257.354L257.715,257.337L257.678,257.302L257.629,257.255L257.58,257.207L257.532,257.16L257.484,257.112L257.436,257.063L257.389,257.014L257.342,256.965L257.296,256.915L257.25,256.865L257.205,256.814L257.16,256.763L257.116,256.712L257.071,256.66L257.028,256.608L256.985,256.556L256.942,256.503L256.9,256.45L256.858,256.396L256.816,256.343L256.775,256.288L256.735,256.234L256.695,256.179L256.655,256.124L256.616,256.068L256.578,256.012L256.539,255.956L256.502,255.9L256.465,255.843L256.428,255.786L256.392,255.728L256.356,255.67L256.321,255.612L256.286,255.554L256.252,255.495L256.218,255.436L256.185,255.377L256.152,255.317L256.12,255.258L256.088,255.198L256.057,255.137L256.026,255.077L255.996,255.016L255.967,254.955L255.937,254.893L255.909,254.832L255.881,254.77L255.853,254.708L255.826,254.645L255.8,254.583L255.774,254.52L255.748,254.457L255.723,254.394L255.699,254.331L255.675,254.267L255.652,254.203L255.629,254.139L255.607,254.075L255.585,254.01L255.564,253.946L255.544,253.881L255.524,253.816L255.504,253.751L255.485,253.686L255.467,253.621L255.449,253.555L255.432,253.489L255.415,253.423L255.399,253.357L255.384,253.291L255.369,253.225L255.354,253.159L255.341,253.092L255.327,253.026L255.315,252.959L255.302,252.892L255.291,252.825L255.28,252.758L255.269,252.691L255.259,252.624L255.25,252.556L255.241,252.489L255.233,252.422L255.226,252.354L255.219,252.287L255.212,252.219L255.206,252.151L255.201,252.084L255.196,252.016L255.192,251.948L255.189,251.88L255.186,251.812L255.183,251.744L255.181,251.677L255.18,251.609L255.179,251.541L255.179,251.473L255.18,251.405L255.181,251.272L255.189,251.042L255.203,250.806L255.224,250.556L255.254,250.295L255.293,250.025L255.343,249.738L255.406,249.438L255.484,249.124L255.578,248.797L255.69,248.459L255.823,248.11L255.982,247.743L256.17,247.36L256.384,246.978L256.628,246.59L256.91,246.194L257.221,245.807L257.566,245.427L257.953,245.052L258.369,244.7L258.803,244.378L259.267,244.079L259.751,243.811L260.246,243.579L260.745,243.384L261.244,243.225L261.739,243.1L262.221,243.01L262.69,242.949L263.14,242.917L263.568,242.908L263.979,242.92ZM271.178,251.65L271.178,251.637L271.179,251.582L271.178,251.65ZM263.804,244.358L263.78,244.359L263.809,244.359L263.877,244.357L263.804,244.358Z"/>
        <path d="M295.368,243.306L295.905,243.383L296.382,243.481L296.8,243.592L297.175,243.711L297.574,243.858L298.049,244.064L298.498,244.293L298.862,244.503L299.163,244.693L299.416,244.866L299.634,245.024L299.825,245.169L299.991,245.301L300.139,245.423L300.273,245.536L300.395,245.641L300.515,245.747L300.699,245.913L300.871,246.071L301.042,246.231L301.056,246.237L301.153,246.28L301.248,246.324L301.344,246.37L301.438,246.417L301.532,246.465L301.625,246.515L301.718,246.566L301.81,246.618L301.901,246.671L301.992,246.725L302.081,246.781L302.17,246.837L302.259,246.895L302.346,246.954L302.433,247.015L302.519,247.076L302.604,247.139L302.688,247.202L302.772,247.267L302.854,247.333L302.936,247.4L303.017,247.468L303.097,247.537L303.176,247.607L303.254,247.678L303.331,247.75L303.407,247.823L303.482,247.897L303.557,247.972L303.63,248.048L303.702,248.125L303.773,248.203L303.843,248.282L303.912,248.362L303.98,248.443L304.047,248.525L304.113,248.607L304.178,248.691L304.242,248.775L304.304,248.86L304.366,248.946L304.426,249.033L304.485,249.12L304.543,249.208L304.6,249.297L304.655,249.387L304.71,249.478L304.763,249.569L304.815,249.661L304.866,249.753L304.916,249.846L304.964,249.94L305.011,250.035L305.057,250.13L305.101,250.226L305.145,250.322L305.187,250.419L305.228,250.516L305.267,250.614L305.305,250.713L305.342,250.812L305.378,250.911L305.412,251.011L305.445,251.111L305.477,251.212L305.507,251.313L305.536,251.415L305.563,251.517L305.59,251.619L305.614,251.722L305.638,251.825L305.66,251.928L305.681,252.031L305.7,252.135L305.719,252.239L305.735,252.343L305.751,252.448L305.764,252.553L305.777,252.657L305.788,252.762L305.798,252.868L305.806,252.973L305.813,253.078L305.819,253.184L305.823,253.289L305.826,253.395L305.827,253.5L305.827,253.606L305.826,253.712L305.823,253.817L305.819,253.923L305.814,254.028L305.807,254.133L305.798,254.239L305.789,254.344L305.778,254.449L305.765,254.554L305.751,254.658L305.736,254.763L305.719,254.867L305.701,254.971L305.682,255.075L305.661,255.179L305.639,255.282L305.616,255.385L305.591,255.487L305.565,255.59L305.537,255.692L305.508,255.793L305.478,255.894L305.447,255.995L305.414,256.096L305.38,256.196L305.344,256.295L305.307,256.394L305.269,256.492L305.23,256.59L305.189,256.688L305.147,256.785L305.104,256.881L305.059,256.977L305.014,257.072L304.967,257.167L304.918,257.26L304.869,257.354L304.818,257.446L304.766,257.538L304.713,257.63L304.659,257.72L304.603,257.81L304.546,257.899L304.488,257.987L304.429,258.075L304.369,258.161L304.308,258.247L304.245,258.333L304.182,258.417L304.117,258.5L304.051,258.583L303.984,258.665L303.916,258.745L303.847,258.825L303.777,258.904L303.706,258.982L303.634,259.06L303.561,259.136L303.487,259.211L303.411,259.285L303.335,259.358L303.258,259.43L303.18,259.502L303.101,259.572L303.021,259.641L302.941,259.709L302.859,259.776L302.777,259.842L302.693,259.906L302.609,259.97L302.524,260.033L302.438,260.094L302.351,260.154L302.264,260.214L302.175,260.272L302.086,260.328L301.997,260.384L301.906,260.438L301.815,260.492L301.723,260.544L301.631,260.594L301.537,260.644L301.443,260.692L301.349,260.739L301.254,260.785L301.158,260.83L301.062,260.873L300.965,260.915L300.867,260.956L300.77,260.996L300.671,261.034L300.572,261.071L300.473,261.106L300.373,261.14L300.272,261.173L300.172,261.205L300.071,261.235L299.969,261.264L299.867,261.292L299.765,261.318L299.662,261.343L299.559,261.366L299.456,261.389L299.352,261.409L299.249,261.429L299.145,261.447L299.04,261.464L298.936,261.479L298.831,261.493L298.726,261.505L298.621,261.517L298.516,261.526L298.411,261.535L298.306,261.542L298.2,261.547L298.095,261.552L297.989,261.554L297.883,261.556L297.778,261.556L297.672,261.555L297.493,261.551L297.172,261.533L296.864,261.505L296.565,261.467L296.282,261.421L296.01,261.37L295.749,261.311L295.502,261.249L295.265,261.182L295.04,261.112L294.826,261.04L294.624,260.967L294.428,260.891L294.206,260.8L293.899,260.663L293.581,260.507L293.291,260.353L293.025,260.201L292.778,260.051L292.551,259.906L292.34,259.765L292.142,259.627L291.957,259.492L291.785,259.363L291.623,259.237L291.469,259.114L291.337,259.007L291.334,259.005L291.236,258.965L291.139,258.924L291.042,258.881L290.946,258.837L290.851,258.792L290.756,258.746L290.662,258.698L290.568,258.649L290.475,258.599L290.383,258.548L290.291,258.495L290.201,258.441L290.11,258.386L290.021,258.33L289.932,258.273L289.844,258.214L289.757,258.155L289.671,258.094L289.585,258.032L289.501,257.969L289.417,257.905L289.334,257.84L289.252,257.773L289.17,257.706L289.09,257.637L289.011,257.568L288.932,257.497L288.854,257.425L288.778,257.353L288.702,257.279L288.627,257.205L288.554,257.129L288.481,257.052L288.409,256.975L288.339,256.896L288.269,256.817L288.201,256.737L288.133,256.655L288.067,256.573L288.001,256.49L287.937,256.406L287.874,256.322L287.812,256.236L287.751,256.15L287.691,256.063L287.633,255.975L287.576,255.886L287.519,255.797L287.464,255.707L287.41,255.616L287.358,255.524L287.306,255.432L287.256,255.339L287.207,255.246L287.16,255.151L287.113,255.057L287.068,254.961L287.024,254.865L286.981,254.769L286.94,254.671L286.9,254.574L286.861,254.476L286.823,254.377L286.787,254.278L286.752,254.178L286.719,254.078L286.686,253.977L286.655,253.876L286.626,253.775L286.598,253.673L286.571,253.571L286.545,253.469L286.521,253.366L286.498,253.263L286.477,253.159L286.456,253.056L286.438,252.952L286.42,252.848L286.404,252.743L286.39,252.639L286.377,252.534L286.365,252.429L286.354,252.324L286.345,252.219L286.337,252.113L286.331,252.008L286.326,251.903L286.323,251.797L286.321,251.691L286.32,251.586L286.32,251.48L286.322,251.338L286.333,251.075L286.354,250.789L286.387,250.474L286.437,250.129L286.508,249.753L286.607,249.34L286.741,248.886L286.92,248.391L287.152,247.863L287.456,247.291L287.834,246.702L288.057,246.414L288.118,246.336L288.18,246.259L288.243,246.183L288.307,246.108L288.372,246.033L288.437,245.959L288.504,245.886L288.571,245.814L288.581,245.803L288.653,245.728L288.725,245.655L288.798,245.582L288.873,245.51L288.948,245.439L289.024,245.37L289.101,245.301L289.179,245.233L289.19,245.224L289.263,245.162L289.337,245.1L289.412,245.04L289.487,244.98L289.564,244.922L289.64,244.864L289.718,244.807L289.796,244.751L289.875,244.696L289.887,244.688L289.966,244.635L290.046,244.582L290.126,244.53L290.207,244.479L290.289,244.429L290.372,244.38L290.454,244.333L290.538,244.286L290.622,244.24L290.634,244.233L290.72,244.188L290.806,244.143L290.893,244.1L290.981,244.057L291.068,244.016L291.157,243.976L291.246,243.937L291.335,243.898L291.425,243.861L291.438,243.856L291.534,243.818L291.631,243.781L291.728,243.745L291.826,243.711L291.925,243.677L292.023,243.645L292.123,243.615L292.222,243.585L292.235,243.581L292.332,243.554L292.429,243.528L292.527,243.503L292.625,243.48L292.723,243.457L292.821,243.436L292.92,243.416L293.019,243.397L293.033,243.395L293.135,243.377L293.238,243.36L293.341,243.345L293.444,243.331L293.548,243.318L293.651,243.307L293.755,243.297L294.113,243.265L294.776,243.263L295.368,243.306ZM302.317,251.792L302.317,251.795L302.318,251.768L302.319,251.687L302.317,251.792ZM298.089,245.56L298.152,245.563L298.099,245.56L297.983,245.558L298.089,245.56Z"/>
        <path d="M301.803,273.911L302.151,273.938L302.498,273.979L302.842,274.036L303.184,274.107L303.522,274.193L303.856,274.294L304.185,274.41L304.509,274.54L304.827,274.683L305.139,274.841L305.443,275.012L305.74,275.196L306.028,275.393L306.307,275.602L306.578,275.823L306.838,276.056L307.087,276.3L307.326,276.554L307.554,276.819L307.769,277.093L307.973,277.377L308.164,277.669L308.342,277.969L308.507,278.277L308.658,278.591L308.796,278.912L308.919,279.239L309.028,279.57L309.122,279.906L309.202,280.246L309.266,280.589L309.316,280.935L309.351,281.282L309.37,281.63L309.374,281.979L309.373,282.136L309.365,282.372L309.354,282.603L309.339,282.83L309.319,283.055L309.296,283.274L309.27,283.49L309.24,283.704L309.207,283.914L309.172,284.121L309.133,284.325L309.092,284.527L309.049,284.724L309.004,284.918L308.956,285.111L308.906,285.302L308.854,285.49L308.8,285.675L308.745,285.858L308.688,286.038L308.629,286.216L308.569,286.392L308.506,286.568L308.443,286.741L308.378,286.912L308.312,287.082L308.245,287.249L308.176,287.416L308.106,287.581L308.035,287.745L307.962,287.907L307.889,288.067L307.815,288.227L307.739,288.386L307.662,288.544L307.584,288.7L307.505,288.856L307.425,289.01L307.345,289.163L307.263,289.316L307.18,289.469L307.096,289.62L307.011,289.77L306.925,289.92L306.839,290.069L306.752,290.217L306.663,290.365L306.567,290.523L306.393,290.805L306.208,291.095L306.019,291.384L305.828,291.67L305.633,291.955L305.434,292.239L305.233,292.522L305.028,292.802L304.82,293.081L304.609,293.36L304.395,293.637L304.178,293.913L303.958,294.188L303.735,294.462L303.509,294.735L303.28,295.007L303.049,295.278L302.814,295.548L302.577,295.817L302.337,296.085L302.095,296.352L301.85,296.618L301.602,296.883L301.352,297.147L301.099,297.409L300.844,297.671L300.587,297.932L300.327,298.192L300.065,298.45L299.801,298.707L299.534,298.963L299.266,299.218L298.995,299.471L298.722,299.723L298.447,299.973L298.17,300.222L297.891,300.47L297.611,300.716L297.328,300.96L297.043,301.203L296.757,301.444L296.469,301.684L296.18,301.921L295.888,302.157L295.595,302.391L295.3,302.623L295.004,302.853L294.707,303.08L294.407,303.306L294.106,303.53L293.804,303.751L293.501,303.97L293.196,304.187L292.889,304.401L292.581,304.613L292.272,304.823L291.961,305.03L291.649,305.234L291.336,305.436L291.022,305.634L290.705,305.831L290.388,306.024L290.069,306.214L289.749,306.401L289.427,306.585L289.104,306.767L288.779,306.944L288.453,307.119L288.134,307.285L287.961,307.374L287.796,307.458L287.631,307.54L287.465,307.622L287.299,307.703L287.131,307.783L286.964,307.861L286.798,307.939L286.629,308.016L286.46,308.092L286.29,308.168L286.122,308.241L285.951,308.314L285.78,308.386L285.609,308.457L285.437,308.527L285.264,308.596L285.091,308.664L284.917,308.73L284.742,308.796L284.567,308.86L284.392,308.923L284.214,308.985L284.037,309.046L283.859,309.105L283.68,309.164L283.499,309.221L283.319,309.276L283.137,309.33L282.954,309.383L282.771,309.435L282.587,309.485L282.402,309.533L282.215,309.58L282.027,309.626L281.838,309.67L281.649,309.712L281.458,309.752L281.266,309.791L281.072,309.828L280.878,309.863L280.681,309.896L280.485,309.927L280.287,309.956L280.087,309.983L279.885,310.008L279.682,310.031L279.478,310.051L279.272,310.069L279.066,310.085L278.857,310.098L278.646,310.108L278.433,310.115L278.221,310.12L278.006,310.122L277.788,310.121L277.571,310.116L277.352,310.108L277.13,310.097L276.907,310.083L276.683,310.064L276.456,310.042L276.229,310.016L276.001,309.987L275.77,309.953L275.538,309.914L275.306,309.872L275.073,309.825L274.838,309.773L274.624,309.721L274.434,309.673L274.267,309.63L274.101,309.585L273.935,309.539L273.769,309.492L273.606,309.444L273.442,309.395L273.28,309.345L273.118,309.294L272.957,309.243L272.796,309.189L272.638,309.136L272.479,309.081L272.32,309.025L272.163,308.969L271.995,308.907L271.697,308.794L271.389,308.673L271.086,308.549L270.785,308.422L270.487,308.292L270.193,308.159L269.902,308.022L269.614,307.883L269.33,307.742L269.048,307.597L268.77,307.45L268.495,307.302L268.224,307.151L267.955,306.997L267.689,306.841L267.427,306.683L267.169,306.524L266.912,306.362L266.66,306.2L266.41,306.035L266.163,305.868L265.92,305.7L265.68,305.531L265.442,305.36L265.208,305.188L264.976,305.015L264.748,304.841L264.522,304.665L264.3,304.489L264.08,304.311L263.863,304.133L263.65,303.954L263.439,303.775L263.23,303.594L263.025,303.413L262.822,303.232L262.623,303.049L262.426,302.867L262.231,302.684L262.04,302.501L261.851,302.318L261.665,302.134L261.481,301.95L261.3,301.766L261.123,301.583L260.946,301.398L260.773,301.214L260.603,301.031L260.436,300.848L260.27,300.664L260.107,300.481L259.947,300.299L259.789,300.116L259.634,299.934L259.482,299.753L259.331,299.571L259.183,299.39L259.038,299.211L258.895,299.032L258.755,298.853L258.617,298.675L258.48,298.497L258.347,298.321L258.216,298.145L258.087,297.97L257.961,297.796L257.837,297.623L257.715,297.451L257.595,297.279L257.478,297.108L257.363,296.939L257.25,296.771L257.139,296.604L257.031,296.437L256.924,296.272L256.82,296.107L256.718,295.944L256.618,295.782L256.52,295.62L256.424,295.459L256.331,295.301L256.239,295.142L256.148,294.984L256.06,294.827L255.974,294.671L255.89,294.515L255.807,294.36L255.727,294.206L255.647,294.05L255.57,293.896L255.494,293.742L255.419,293.587L255.346,293.43L255.274,293.273L255.203,293.114L255.134,292.953L255.065,292.79L254.997,292.621L254.93,292.45L254.864,292.272L254.797,292.085L254.732,291.892L254.667,291.687L254.601,291.465L254.536,291.226L254.472,290.967L254.41,290.677L254.351,290.348L254.298,289.968L254.256,289.525L254.236,289.001L254.255,288.357L254.333,287.686L254.439,287.135L254.572,286.62L254.756,286.066L254.875,285.782L254.972,285.559L255.076,285.339L255.186,285.122L255.191,285.113L255.312,284.892L255.441,284.675L255.576,284.462L255.581,284.454L255.741,284.219L255.91,283.99L256.086,283.767L256.092,283.76L256.29,283.528L256.498,283.303L256.713,283.086L256.72,283.08L256.96,282.857L257.21,282.644L257.467,282.441L257.474,282.436L257.75,282.238L258.033,282.051L258.325,281.877L258.332,281.872L258.627,281.713L258.927,281.565L259.234,281.431L259.242,281.427L259.542,281.31L259.847,281.205L260.155,281.112L260.164,281.11L260.466,281.032L260.77,280.966L261.076,280.912L261.086,280.91L261.366,280.872L261.646,280.843L261.928,280.824L261.938,280.824L262.287,280.814L262.636,280.82L262.984,280.841L263.332,280.877L263.677,280.928L264.02,280.994L264.359,281.075L264.695,281.171L265.026,281.281L265.352,281.406L265.672,281.545L265.986,281.697L266.293,281.864L266.592,282.043L266.884,282.235L267.166,282.44L267.44,282.657L267.703,282.886L267.957,283.126L268.2,283.376L268.431,283.638L268.651,283.909L268.859,284.189L269.055,284.478L269.237,284.775L269.407,285.081L269.563,285.393L269.705,285.711L269.834,286.036L269.948,286.366L270.047,286.7L270.132,287.039L270.185,287.296L270.226,287.364L270.269,287.435L270.314,287.508L270.361,287.584L270.41,287.661L270.461,287.741L270.514,287.822L270.569,287.905L270.626,287.99L270.685,288.076L270.745,288.164L270.807,288.252L270.871,288.343L270.936,288.434L271.003,288.526L271.072,288.62L271.143,288.714L271.215,288.81L271.288,288.905L271.363,289.002L271.439,289.099L271.517,289.197L271.597,289.296L271.678,289.395L271.76,289.493L271.844,289.593L271.929,289.693L272.015,289.792L272.103,289.893L272.192,289.993L272.281,290.092L272.373,290.192L272.466,290.292L272.559,290.392L272.653,290.49L272.749,290.589L272.846,290.688L272.944,290.786L273.043,290.883L273.142,290.98L273.243,291.076L273.345,291.172L273.448,291.267L273.551,291.361L273.655,291.454L273.76,291.547L273.866,291.639L273.972,291.729L274.079,291.819L274.187,291.908L274.295,291.995L274.404,292.081L274.514,292.167L274.623,292.25L274.734,292.333L274.845,292.414L274.956,292.494L275.068,292.574L275.181,292.651L275.293,292.726L275.405,292.801L275.519,292.874L275.632,292.945L275.745,293.015L275.859,293.084L275.973,293.15L276.086,293.215L276.201,293.279L276.315,293.341L276.429,293.401L276.543,293.46L276.658,293.517L276.772,293.572L276.886,293.625L277,293.677L277.115,293.727L277.229,293.775L277.343,293.822L277.457,293.867L277.583,293.915L277.629,293.931L277.686,293.952L277.742,293.972L277.799,293.991L277.857,294.011L277.913,294.029L277.97,294.048L278.027,294.065L278.084,294.083L278.137,294.099L278.153,294.096L278.185,294.09L278.219,294.083L278.255,294.075L278.294,294.067L278.335,294.057L278.378,294.047L278.423,294.036L278.47,294.023L278.519,294.01L278.571,293.996L278.623,293.98L278.678,293.964L278.735,293.946L278.793,293.928L278.853,293.909L278.915,293.888L278.978,293.866L279.042,293.844L279.109,293.82L279.178,293.795L279.246,293.769L279.317,293.742L279.39,293.713L279.462,293.684L279.538,293.654L279.614,293.622L279.69,293.59L279.769,293.556L279.85,293.521L279.93,293.485L280.011,293.449L280.094,293.411L280.179,293.372L280.264,293.331L280.349,293.291L280.436,293.249L280.524,293.205L280.612,293.161L280.702,293.116L280.783,293.074L280.975,292.974L281.161,292.874L281.35,292.771L281.541,292.664L281.735,292.553L281.931,292.438L282.129,292.32L282.329,292.198L282.53,292.074L282.733,291.945L282.938,291.813L283.143,291.679L283.35,291.541L283.558,291.4L283.766,291.257L283.975,291.111L284.185,290.961L284.395,290.81L284.606,290.656L284.816,290.499L285.026,290.341L285.237,290.179L285.447,290.016L285.657,289.851L285.866,289.684L286.075,289.516L286.283,289.345L286.49,289.173L286.696,288.999L286.901,288.824L287.105,288.648L287.308,288.47L287.509,288.292L287.709,288.112L287.907,287.931L288.103,287.75L288.298,287.568L288.491,287.385L288.682,287.202L288.87,287.019L289.057,286.835L289.24,286.651L289.422,286.468L289.601,286.284L289.777,286.1L289.95,285.918L290.121,285.735L290.288,285.553L290.453,285.372L290.614,285.192L290.772,285.013L290.926,284.835L291.077,284.658L291.225,284.483L291.368,284.31L291.508,284.138L291.644,283.969L291.775,283.801L291.903,283.636L292.026,283.474L292.144,283.314L292.259,283.157L292.368,283.004L292.473,282.855L292.573,282.708L292.668,282.566L292.758,282.428L292.843,282.295L292.929,282.155L292.961,282.104L292.997,282.043L293.032,281.984L293.066,281.925L293.098,281.869L293.129,281.813L293.159,281.76L293.187,281.708L293.214,281.659L293.24,281.61L293.264,281.563L293.286,281.519L293.307,281.476L293.327,281.435L293.346,281.397L293.363,281.361L293.379,281.326L293.393,281.294L293.401,281.275L293.412,281.123L293.454,280.777L293.51,280.432L293.582,280.091L293.668,279.753L293.769,279.418L293.885,279.089L294.014,278.765L294.158,278.447L294.316,278.135L294.486,277.831L294.67,277.535L294.867,277.246L295.076,276.967L295.298,276.697L295.53,276.437L295.774,276.187L296.029,275.948L296.293,275.721L296.568,275.505L296.851,275.301L297.143,275.11L297.444,274.932L297.751,274.767L298.066,274.616L298.387,274.479L298.713,274.355L299.045,274.247L299.381,274.152L299.721,274.073L300.064,274.008L300.409,273.958L300.757,273.924L301.105,273.904L301.454,273.9L301.803,273.911ZM264.106,296.615L263.765,296.685L263.42,296.74L263.073,296.779L262.725,296.804L263.138,296.784L264.01,296.648L264.326,296.559L264.106,296.615ZM264.78,296.43L264.623,296.477L264.918,296.395L265.095,296.321L264.78,296.43ZM265.753,296.045L265.653,296.09L265.821,296.02L265.952,295.946L265.753,296.045ZM266.667,295.537L266.65,295.548L266.694,295.523L266.74,295.488L266.667,295.537ZM293.377,281.737L293.375,281.817L293.375,281.82L293.378,281.725L293.377,281.737Z"/>
        <path d="M283.653,209.653L283.846,209.661L284.043,209.673L284.245,209.688L284.449,209.709L284.658,209.734L284.873,209.764L285.09,209.8L285.311,209.842L285.536,209.89L285.765,209.944L285.998,210.006L286.233,210.074L286.469,210.15L286.708,210.234L286.951,210.326L287.193,210.426L287.435,210.534L287.679,210.652L287.922,210.778L288.162,210.912L288.4,211.054L288.639,211.206L288.872,211.365L289.1,211.531L289.326,211.706L289.546,211.889L289.824,212.133L290.207,212.508L290.617,212.974L290.982,213.456L291.308,213.957L291.59,214.467L291.826,214.971L292.019,215.464L292.173,215.941L292.219,216.117L292.257,216.122L292.511,216.154L292.762,216.187L293.01,216.221L293.254,216.256L293.496,216.291L293.736,216.327L293.971,216.364L294.205,216.402L294.435,216.441L294.662,216.48L294.887,216.519L295.109,216.56L295.328,216.6L295.544,216.642L295.758,216.683L295.968,216.725L296.184,216.769L296.584,216.853L296.981,216.94L297.368,217.027L297.744,217.114L298.11,217.2L298.467,217.286L298.814,217.372L299.154,217.456L299.8,217.618L300.428,217.775L300.728,217.849L301.026,217.922L301.32,217.993L301.611,218.061L301.9,218.127L302.188,218.192L302.477,218.254L302.776,218.316L302.914,218.344L303.061,218.373L303.209,218.401L303.358,218.43L303.509,218.457L303.661,218.484L303.815,218.511L303.97,218.538L304.127,218.563L304.287,218.589L304.448,218.614L304.612,218.638L304.779,218.663L304.948,218.686L305.12,218.709L305.295,218.732L305.472,218.754L305.653,218.775L305.838,218.797L306.025,218.817L306.216,218.837L306.411,218.856L306.61,218.875L306.813,218.893L307.019,218.911L307.23,218.927L307.445,218.943L307.664,218.959L307.888,218.973L308.117,218.987L308.35,219L308.588,219.013L308.83,219.024L309.078,219.035L309.33,219.044L309.588,219.053L309.852,219.061L310.12,219.068L310.394,219.074L310.673,219.078L310.958,219.082L311.249,219.085L311.545,219.087L311.862,219.087L312.345,219.103L312.826,219.148L313.304,219.221L313.776,219.323L314.242,219.454L314.698,219.613L315.144,219.798L315.578,220.011L315.999,220.249L316.404,220.512L316.793,220.799L317.163,221.109L317.515,221.441L317.845,221.794L318.154,222.166L318.44,222.555L318.701,222.962L318.938,223.383L319.149,223.818L319.333,224.265L319.489,224.722L319.618,225.187L319.719,225.66L319.791,226.138L319.833,226.619L319.847,227.102L319.832,227.585L319.787,228.067L319.713,228.544L319.611,229.017L319.48,229.482L319.322,229.938L319.136,230.384L318.924,230.819L318.686,231.239L318.422,231.644L318.135,232.033L317.825,232.404L317.493,232.755L317.141,233.085L316.769,233.394L316.379,233.68L315.973,233.941L315.552,234.178L315.117,234.389L314.67,234.573L314.213,234.73L313.747,234.858L313.274,234.959L312.796,235.031L312.315,235.074L311.832,235.087L311.485,235.087L311.127,235.085L310.774,235.081L310.426,235.077L310.082,235.071L309.743,235.063L309.408,235.055L309.078,235.045L308.752,235.034L308.43,235.021L308.113,235.008L307.799,234.993L307.489,234.977L307.184,234.96L306.882,234.942L306.584,234.922L306.29,234.902L305.999,234.88L305.712,234.857L305.428,234.833L305.148,234.808L304.872,234.782L304.598,234.755L304.328,234.727L304.062,234.698L303.798,234.668L303.538,234.637L303.281,234.605L303.027,234.572L302.777,234.538L302.529,234.504L302.284,234.468L302.042,234.432L301.803,234.395L301.568,234.357L301.335,234.319L301.105,234.28L300.877,234.241L300.653,234.2L300.432,234.16L300.213,234.118L299.997,234.077L299.784,234.035L299.566,233.991L299.162,233.907L298.76,233.82L298.37,233.733L297.989,233.646L297.619,233.559L297.259,233.472L296.909,233.387L296.565,233.302L295.915,233.139L295.283,232.981L294.981,232.906L294.683,232.833L294.389,232.762L294.099,232.693L293.811,232.626L293.524,232.562L293.237,232.5L292.942,232.437L292.805,232.409L292.659,232.38L292.513,232.352L292.366,232.324L292.218,232.296L292.068,232.269L291.917,232.242L291.764,232.216L291.609,232.19L291.453,232.165L291.294,232.14L291.134,232.116L290.971,232.092L290.805,232.068L290.637,232.045L290.466,232.023L290.292,232.001L290.115,231.979L289.935,231.959L289.751,231.938L289.564,231.918L289.374,231.899L289.18,231.881L288.982,231.863L288.78,231.845L288.574,231.829L288.364,231.813L288.15,231.797L287.931,231.783L287.708,231.769L287.481,231.756L287.248,231.744L287.011,231.732L286.769,231.722L286.522,231.712L286.27,231.704L286.014,231.696L285.751,231.689L285.483,231.683L285.21,231.678L284.932,231.674L284.648,231.672L284.502,231.671L284.412,231.682L284.127,231.71L283.895,231.727L283.67,231.738L283.424,231.743L283.153,231.742L282.855,231.731L282.531,231.708L282.184,231.67L281.813,231.613L281.416,231.535L281.004,231.433L280.576,231.303L280.137,231.144L279.692,230.955L279.252,230.737L278.825,230.494L278.404,230.222L277.989,229.917L277.59,229.585L277.206,229.224L277.125,229.137L276.975,229.203L276.783,229.286L276.588,229.369L276.391,229.451L276.192,229.532L275.988,229.612L275.783,229.691L275.576,229.769L275.364,229.847L275.15,229.923L274.931,229.997L274.709,230.07L274.484,230.141L274.254,230.211L274.02,230.279L273.781,230.344L273.537,230.407L273.288,230.467L273.033,230.525L272.772,230.579L272.505,230.629L272.231,230.676L271.951,230.718L271.663,230.755L271.367,230.787L271.064,230.812L270.752,230.831L270.458,230.841L270.268,230.844L270.102,230.844L269.935,230.842L269.765,230.838L269.592,230.831L269.417,230.821L269.24,230.808L269.061,230.793L268.88,230.774L268.696,230.752L268.51,230.727L268.322,230.698L268.132,230.666L267.941,230.63L267.748,230.59L267.553,230.545L267.357,230.497L267.158,230.444L266.959,230.386L266.758,230.324L266.557,230.257L266.355,230.186L266.153,230.109L265.95,230.028L265.748,229.941L265.545,229.85L265.343,229.753L265.093,229.626L264.771,229.449L264.404,229.22L264.376,229.201L264.253,229.274L264.037,229.405L263.821,229.536L263.606,229.668L263.391,229.8L263.177,229.932L262.964,230.065L262.752,230.198L262.541,230.332L262.33,230.466L262.12,230.601L261.91,230.736L261.702,230.872L261.494,231.008L261.287,231.145L261.051,231.302L260.88,231.414L260.617,231.585L260.279,231.804L259.87,232.068L259.406,232.366L258.898,232.69L258.363,233.031L257.813,233.38L257.262,233.726L256.728,234.06L256.463,234.224L256.209,234.381L255.962,234.531L255.723,234.676L255.489,234.815L255.26,234.95L255.026,235.084L254.795,235.213L254.637,235.298L254.472,235.384L254.266,235.486L253.984,235.616L253.544,235.799L253.255,235.896L252.877,236.012L252.494,236.109L252.485,236.111L252.049,236.198L251.61,236.26L251.603,236.261L251.273,236.29L251.072,236.481L250.719,236.82L250.55,236.983L250.379,237.149L250.21,237.315L250.042,237.48L249.876,237.645L249.711,237.809L249.549,237.973L249.388,238.137L249.228,238.3L249.071,238.463L248.915,238.625L248.761,238.787L248.609,238.949L248.459,239.111L248.31,239.271L248.164,239.432L248.032,239.579L247.995,239.626L247.767,239.919L247.471,240.298L247.121,240.745L246.727,241.243L246.306,241.773L246.084,242.051L245.86,242.329L245.634,242.609L245.406,242.888L245.179,243.166L244.951,243.44L244.725,243.711L244.5,243.976L244.276,244.237L244.059,244.486L243.937,244.622L243.822,244.75L243.703,244.88L243.58,245.012L243.449,245.149L243.31,245.292L243.156,245.445L242.979,245.615L242.77,245.806L242.504,246.035L242.2,246.275L241.924,246.475L241.636,246.668L241.265,246.893L240.765,247.156L240.469,247.284L240.085,247.439L239.693,247.573L239.681,247.577L239.31,247.684L238.934,247.772L238.554,247.843L238.544,247.845L238.143,247.899L237.74,247.933L237.336,247.946L236.932,247.939L236.923,247.939L236.472,247.907L236.023,247.849L235.578,247.767L235.139,247.659L234.706,247.527L234.699,247.524L234.275,247.368L233.86,247.187L233.456,246.984L233.064,246.758L232.686,246.51L232.322,246.242L232.317,246.237L232.012,245.986L231.721,245.721L231.443,245.442L231.179,245.149L231.015,244.959L230.729,244.584L230.469,244.201L230.233,243.811L230.027,243.423L229.847,243.042L229.692,242.664L229.559,242.294L229.45,241.937L229.36,241.595L229.285,241.258L229.227,240.934L229.184,240.633L229.152,240.339L229.131,240.057L229.119,239.789L229.114,239.532L229.117,239.288L229.125,239.054L229.139,238.832L229.157,238.618L229.183,238.376L229.229,238.037L229.29,237.681L229.359,237.353L229.432,237.049L229.509,236.761L229.589,236.491L229.671,236.235L229.755,235.99L229.841,235.755L229.927,235.531L230.015,235.313L230.104,235.101L230.194,234.896L230.285,234.695L230.377,234.499L230.47,234.307L230.563,234.117L230.658,233.93L230.754,233.746L230.852,233.563L230.949,233.383L231.048,233.203L231.149,233.025L231.25,232.848L231.353,232.671L231.456,232.496L231.56,232.322L231.666,232.148L231.773,231.974L231.881,231.8L231.99,231.628L232.1,231.455L232.212,231.282L232.323,231.111L232.436,230.939L232.551,230.766L232.671,230.588L232.899,230.253L233.135,229.91L233.375,229.569L233.618,229.229L233.864,228.889L234.113,228.551L234.363,228.215L234.616,227.88L234.87,227.547L235.126,227.217L235.383,226.89L235.641,226.565L235.899,226.243L236.158,225.925L236.416,225.611L236.675,225.301L236.933,224.996L237.19,224.695L237.447,224.399L237.702,224.108L237.957,223.823L238.211,223.543L238.464,223.268L238.717,222.999L238.969,222.735L239.214,222.484L239.348,222.348L239.475,222.221L239.603,222.096L239.731,221.971L239.861,221.847L239.992,221.723L240.124,221.601L240.259,221.477L240.396,221.354L240.536,221.231L240.681,221.107L240.829,220.982L240.984,220.856L241.146,220.727L241.316,220.596L241.496,220.462L241.69,220.323L241.899,220.18L242.13,220.029L242.386,219.873L242.673,219.71L243.004,219.537L243.386,219.357L243.838,219.172L244.308,219.011L244.686,218.904L245.028,218.821L245.409,218.747L245.831,218.685L246.297,218.643L246.553,218.634L246.74,218.634L246.802,218.574L246.963,218.414L247.122,218.255L247.279,218.097L247.434,217.94L247.587,217.783L247.738,217.627L247.888,217.472L248.062,217.289L248.194,217.15L248.38,216.964L248.617,216.738L248.909,216.481L249.198,216.249L249.541,215.996L249.753,215.858L250.054,215.672L250.363,215.5L250.374,215.494L250.717,215.323L251.067,215.168L251.425,215.031L251.434,215.027L251.82,214.9L252.211,214.793L252.608,214.706L253.009,214.639L253.412,214.592L253.419,214.592L253.872,214.564L254.325,214.562L254.778,214.586L255.229,214.635L255.676,214.71L256.118,214.809L256.554,214.934L256.875,215.046L257.279,214.809L257.789,214.513L258.298,214.221L258.808,213.931L259.316,213.645L259.825,213.362L260.333,213.082L260.84,212.804L261.347,212.529L261.853,212.257L262.358,211.987L262.862,211.72L263.365,211.455L263.867,211.192L264.367,210.931L264.867,210.673L265.365,210.416L265.861,210.16L266.358,209.906L267.341,209.404L268.396,208.868L268.689,208.728L269.142,208.538L269.728,208.337L270.074,208.249L270.512,208.152L270.955,208.079L270.971,208.077L271.369,208.033L271.769,208.009L272.17,208.006L272.184,208.006L272.581,208.022L272.977,208.058L273.371,208.113L273.761,208.188L273.773,208.191L274.134,208.278L274.49,208.382L274.841,208.503L275.186,208.639L275.191,208.641L275.53,208.794L275.862,208.962L276.185,209.146L276.19,209.149L276.509,209.35L276.819,209.567L277.118,209.798L277.122,209.801L277.429,210.063L277.723,210.341L278.002,210.632L278.005,210.636L278.138,210.79L278.267,210.738L278.462,210.661L278.66,210.585L278.863,210.51L279.07,210.437L279.282,210.364L279.499,210.292L279.722,210.222L279.952,210.154L280.188,210.088L280.432,210.024L280.685,209.963L280.947,209.905L281.218,209.851L281.5,209.801L281.793,209.757L282.099,209.718L282.419,209.686L282.752,209.663L283.067,209.651L283.281,209.648L283.465,209.649L283.653,209.653Z"/>
    </g>
    <path d="M6.523,639.72L73.07,639.72L73.07,83.478L751.031,83.478L751.031,630.138L953.812,630.138L953.812,79.431L1280,79.431" style="fill:none;stroke:black;stroke-width:1px;"/>
    <path d="M752.674,82.228C820.906,82.228 892.294,81.905 958.893,81.905" style="fill:none;stroke:black;stroke-width:1px;"/>
    <defs>
        <linearGradient id="_Linear1" x1="0" y1="0" x2="1" y2="0" gradientUnits="userSpaceOnUse" gradientTransform="matrix(-106.874,200.539,-200.539,-106.874,250.005,159.036)"><stop offset="0" style="stop-color:white;stop-opacity:1"/><stop offset="1" style="stop-color:rgb(208,29,29);stop-opacity:1"/></linearGradient>
        <linearGradient id="_Linear2" x1="0" y1="0" x2="1" y2="0" gradientUnits="userSpaceOnUse" gradientTransform="matrix(160.609,33.5472,-33.5472,160.609,247.465,383.159)"><stop offset="0" style="stop-color:white;stop-opacity:1"/><stop offset="1" style="stop-color:rgb(166,166,166);stop-opacity:1"/></linearGradient>
    </defs>
</svg>
